<?xml version="1.0" encoding="utf-8"?>
<!-- Generator: Adobe Illustrator 19.0.0, SVG Export Plug-In . SVG Version: 6.00 Build 0)  -->
<svg version="1.1" id="Layer_1" xmlns="http://www.w3.org/2000/svg" xmlns:xlink="http://www.w3.org/1999/xlink" x="0px" y="0px"
	 viewBox="0 0 612 100.9" style="enable-background:new 0 0 612 100.9;" xml:space="preserve">
<style type="text/css">
	.st0{fill-rule:evenodd;clip-rule:evenodd;fill:#F47A32;}
	.st1{fill-rule:evenodd;clip-rule:evenodd;fill:#10706E;}
	.st2{fill-rule:evenodd;clip-rule:evenodd;fill:#D5EEF4;}
	.st3{fill:#FFFFFF;}
	.st4{fill:#EBF7F8;}
</style>
<path id="XMLID_250_" class="st0" d="M188.9,49.5c2-0.5,4,0.6,4.6,2.6c0.5,2-0.6,4-2.6,4.5c-2,0.5-4-0.6-4.6-2.6
	C185.8,52.1,186.9,50.1,188.9,49.5"/>
<path id="XMLID_249_" class="st1" d="M184.7,40.2c0.2,0.2,0.5,0.3,0.7,0.5c1,0.8,1.9,2.2,1.2,3.4c-0.5,0.8,0.3,1.7,1.2,1.5
	c0.9-0.2,1.1-1.4,0.2-1.9c-1.2-0.7-1.1-2.4-0.7-3.6c0.1-0.3,0.3-0.5,0.4-0.8c0.6-1.5-0.8-3-2.3-2.6
	C183.9,37.1,183.4,39.2,184.7,40.2"/>
<path id="XMLID_246_" class="st2" d="M180.1,29.8c0.2-0.6,0.6-1.1,0.8-1.7c0.9-2.5,1.1-6.1-1.4-7.5c-1.7-1-1.3-3.5,0.5-4
	c1.8-0.5,3.4,1.5,2.4,3.2c-1.4,2.5,0.5,5.5,2.5,7.2c0.5,0.4,1,0.7,1.5,1c2.7,2.1,1.7,6.4-1.5,7.2C181.8,36.1,178.9,33,180.1,29.8"/>
<path id="XMLID_245_" class="st1" d="M193.1,28.1c0.5-0.4,1-0.6,1.5-1c2-1.7,4-4.7,2.5-7.2c-1-1.7,0.6-3.6,2.4-3.2
	c1.8,0.5,2.2,3,0.5,4c-2.5,1.4-2.3,5-1.4,7.5c0.2,0.6,0.6,1.1,0.8,1.7c1.3,3.2-1.7,6.4-4.9,5.5C191.4,34.4,190.4,30.2,193.1,28.1"/>
<path id="XMLID_242_" class="st2" d="M191.9,39.4c0.1,0.3,0.3,0.5,0.4,0.8c0.5,1.2,0.5,2.9-0.7,3.6c-0.8,0.5-0.6,1.7,0.2,1.9
	c0.9,0.2,1.6-0.7,1.2-1.5c-0.7-1.2,0.2-2.6,1.2-3.4c0.2-0.2,0.5-0.3,0.7-0.5c1.3-1,0.8-3-0.7-3.5C192.7,36.3,191.2,37.8,191.9,39.4"
	/>
<path id="XMLID_239_" class="st2" d="M205.2,33c0.6-0.1,1.2,0,1.8-0.1c2.6-0.4,5.8-2.1,5.8-5c0-2,2.4-2.8,3.7-1.5
	c1.3,1.3,0.4,3.7-1.5,3.7c-2.9,0-4.5,3.2-5,5.8c-0.1,0.6-0.1,1.2-0.1,1.8c-0.5,3.4-4.7,4.7-7,2.3C200.5,37.7,201.8,33.5,205.2,33"/>
<path id="XMLID_236_" class="st2" d="M198.4,42.2c0,0.3,0,0.6-0.1,0.9c-0.2,1.2-1,2.8-2.4,2.8c-0.9,0-1.4,1.1-0.7,1.8
	c0.6,0.6,1.8,0.2,1.8-0.7c0-1.4,1.5-2.2,2.8-2.4c0.3,0,0.6,0,0.9-0.1c1.6-0.2,2.2-2.2,1.1-3.3C200.7,40,198.7,40.6,198.4,42.2"/>
<path id="XMLID_235_" class="st1" d="M213.1,43.4c0.6,0.2,1.1,0.6,1.7,0.8c2.5,0.9,6.1,1.1,7.5-1.4c1-1.7,3.5-1.3,4,0.5
	c0.5,1.8-1.5,3.4-3.2,2.4c-2.5-1.4-5.5,0.5-7.2,2.6c-0.4,0.5-0.7,1-1,1.5c-2.1,2.7-6.4,1.7-7.2-1.5
	C206.8,45.1,209.9,42.1,213.1,43.4"/>
<path id="XMLID_234_" class="st1" d="M202.7,48c-0.2,0.2-0.3,0.5-0.5,0.7c-0.8,1-2.2,1.9-3.4,1.2c-0.8-0.5-1.7,0.3-1.5,1.2
	c0.2,0.9,1.4,1.1,1.9,0.3c0.7-1.2,2.4-1.1,3.6-0.7c0.3,0.1,0.5,0.3,0.8,0.4c1.5,0.6,3-0.8,2.6-2.3C205.8,47.2,203.8,46.7,202.7,48"
	/>
<path id="XMLID_231_" class="st2" d="M214.8,56.4c0.4,0.5,0.6,1,1,1.5c1.7,2,4.7,4,7.2,2.5c1.7-1,3.6,0.6,3.2,2.4
	c-0.5,1.8-3,2.2-4,0.5c-1.4-2.5-5-2.3-7.5-1.4c-0.6,0.2-1.1,0.6-1.7,0.8c-3.2,1.3-6.4-1.7-5.5-4.9C208.5,54.6,212.7,53.7,214.8,56.4
	"/>
<path id="XMLID_230_" class="st1" d="M203.5,55.1c-0.3,0.1-0.5,0.3-0.8,0.4c-1.2,0.5-2.9,0.5-3.6-0.7c-0.5-0.8-1.7-0.6-1.9,0.2
	c-0.2,0.9,0.7,1.6,1.5,1.2c1.2-0.7,2.7,0.2,3.4,1.2c0.2,0.2,0.3,0.5,0.5,0.7c1,1.3,3,0.8,3.5-0.7C206.6,55.9,205.1,54.5,203.5,55.1"
	/>
<path id="XMLID_229_" class="st1" d="M209.9,68.4c0.1,0.6,0,1.2,0.1,1.8c0.4,2.6,2.1,5.8,5,5.8c2,0,2.8,2.4,1.5,3.7
	c-1.3,1.3-3.7,0.4-3.7-1.5c0-2.9-3.2-4.5-5.8-5c-0.6-0.1-1.2-0.1-1.8-0.1c-3.4-0.5-4.7-4.7-2.3-7C205.2,63.8,209.4,65,209.9,68.4"/>
<path id="XMLID_218_" class="st2" d="M200.7,61.7c-0.3,0-0.6,0-0.9-0.1c-1.2-0.2-2.8-1-2.8-2.4c0-0.9-1.1-1.4-1.8-0.7
	c-0.6,0.6-0.2,1.8,0.7,1.8c1.4,0,2.2,1.5,2.4,2.8c0,0.3,0,0.6,0.1,0.9c0.2,1.6,2.2,2.2,3.4,1.1C202.9,63.9,202.3,61.9,200.7,61.7"/>
<path id="XMLID_215_" class="st2" d="M199.5,76.4c-0.2,0.6-0.6,1.1-0.8,1.7c-0.9,2.5-1.1,6.1,1.4,7.5c1.7,1,1.3,3.5-0.5,4
	c-1.8,0.5-3.4-1.5-2.4-3.2c1.4-2.5-0.5-5.5-2.5-7.2c-0.5-0.4-1-0.7-1.5-1c-2.7-2.1-1.7-6.4,1.5-7.2C197.8,70,200.8,73.2,199.5,76.4"
	/>
<path id="XMLID_149_" class="st2" d="M194.9,66c-0.2-0.2-0.5-0.3-0.7-0.5c-1-0.8-1.9-2.2-1.2-3.4c0.5-0.8-0.3-1.7-1.2-1.5
	c-0.9,0.2-1.1,1.4-0.2,1.9c1.2,0.7,1.1,2.4,0.7,3.6c-0.1,0.3-0.3,0.5-0.4,0.8c-0.6,1.5,0.8,3,2.3,2.6C195.7,69,196.2,67,194.9,66"/>
<path id="XMLID_148_" class="st1" d="M186.5,78.1c-0.5,0.4-1,0.6-1.5,1c-2,1.7-4,4.7-2.5,7.2c1,1.7-0.6,3.6-2.4,3.2
	c-1.8-0.5-2.2-3-0.5-4c2.5-1.4,2.3-5,1.4-7.5c-0.2-0.6-0.6-1.1-0.8-1.7c-1.3-3.2,1.7-6.4,4.9-5.5C188.3,71.7,189.2,76,186.5,78.1"/>
<path id="XMLID_144_" class="st1" d="M187.8,66.8c-0.1-0.3-0.3-0.5-0.4-0.8c-0.5-1.2-0.5-2.9,0.7-3.6c0.8-0.5,0.6-1.7-0.2-1.9
	c-0.9-0.2-1.6,0.7-1.2,1.5c0.7,1.2-0.2,2.6-1.2,3.4c-0.2,0.2-0.5,0.3-0.7,0.5c-1.3,1-0.8,3,0.7,3.5C187,69.9,188.4,68.3,187.8,66.8"
	/>
<path id="XMLID_138_" class="st2" d="M174.5,73.1c-0.6,0.1-1.2,0-1.8,0.1c-2.6,0.4-5.8,2.1-5.8,5c0,2-2.4,2.8-3.7,1.5
	c-1.3-1.3-0.4-3.7,1.5-3.7c2.9,0,4.5-3.2,5-5.8c0.1-0.6,0.1-1.2,0.1-1.8c0.5-3.4,4.7-4.7,7-2.3C179.1,68.5,177.9,72.6,174.5,73.1"/>
<path id="XMLID_136_" class="st1" d="M181.2,63.9c0-0.3,0-0.6,0.1-0.9c0.2-1.2,1-2.8,2.4-2.8c0.9,0,1.4-1.1,0.7-1.8
	c-0.6-0.6-1.8-0.2-1.8,0.7c0,1.4-1.5,2.2-2.8,2.4c-0.3,0-0.6,0-0.9,0.1c-1.6,0.2-2.2,2.2-1.1,3.4C179,66.2,181,65.6,181.2,63.9"/>
<path id="XMLID_135_" class="st1" d="M166.5,62.8c-0.6-0.2-1.1-0.6-1.7-0.8c-2.5-0.9-6.1-1.1-7.5,1.4c-1,1.7-3.5,1.3-4-0.5
	c-0.5-1.8,1.5-3.4,3.2-2.4c2.5,1.4,5.5-0.5,7.2-2.5c0.4-0.5,0.7-1,1-1.5c2.1-2.7,6.4-1.7,7.2,1.5C172.9,61.1,169.7,64,166.5,62.8"/>
<path id="XMLID_129_" class="st2" d="M176.9,58.2c0.2-0.2,0.3-0.5,0.5-0.7c0.8-1,2.2-1.9,3.4-1.2c0.8,0.5,1.7-0.3,1.5-1.2
	c-0.2-0.9-1.4-1.1-1.9-0.2c-0.7,1.2-2.4,1.1-3.6,0.7c-0.3-0.1-0.5-0.3-0.8-0.4c-1.5-0.6-3,0.8-2.6,2.4
	C173.9,59,175.9,59.5,176.9,58.2"/>
<path id="XMLID_122_" class="st2" d="M164.8,49.8c-0.4-0.5-0.6-1-1-1.5c-1.7-2-4.7-4-7.2-2.6c-1.7,1-3.6-0.6-3.2-2.4
	c0.5-1.8,3-2.2,4-0.5c1.4,2.5,5,2.3,7.5,1.4c0.6-0.2,1.1-0.6,1.7-0.8c3.2-1.3,6.4,1.7,5.5,4.9C171.2,51.5,166.9,52.5,164.8,49.8"/>
<path id="XMLID_117_" class="st2" d="M176.1,51c0.3-0.1,0.5-0.3,0.8-0.4c1.2-0.5,2.9-0.5,3.6,0.7c0.5,0.8,1.7,0.6,1.9-0.3
	c0.2-0.9-0.7-1.6-1.5-1.2c-1.2,0.7-2.6-0.2-3.4-1.2c-0.2-0.2-0.3-0.5-0.5-0.7c-1-1.3-3-0.8-3.5,0.7C173.1,50.2,174.6,51.7,176.1,51"
	/>
<path id="XMLID_114_" class="st1" d="M169.8,37.7c-0.1-0.6,0-1.2-0.1-1.8c-0.4-2.6-2.1-5.8-5-5.8c-2,0-2.8-2.4-1.5-3.7
	c1.3-1.3,3.7-0.4,3.7,1.5c0,2.9,3.2,4.5,5.8,5c0.6,0.1,1.2,0.1,1.8,0.1c3.4,0.5,4.7,4.7,2.3,7C174.4,42.4,170.3,41.1,169.8,37.7"/>
<path id="XMLID_111_" class="st1" d="M179,44.5c0.3,0,0.6,0,0.9,0.1c1.2,0.2,2.8,1,2.8,2.4c0,0.9,1.1,1.4,1.8,0.7
	c0.6-0.6,0.2-1.8-0.7-1.8c-1.4,0-2.2-1.5-2.4-2.8c0-0.3,0-0.6-0.1-0.9c-0.2-1.6-2.2-2.2-3.4-1.1C176.7,42.2,177.3,44.2,179,44.5"/>
<path id="XMLID_109_" class="st1" d="M188.2,20.5c0.2,0.2,0.4,0.4,0.6,0.7c0.7,1,1.3,2.7,0.3,3.6c-0.7,0.7-0.2,1.8,0.7,1.8
	c0.9,0,1.4-1.1,0.7-1.8c-1-1-0.5-2.6,0.3-3.6c0.2-0.2,0.4-0.4,0.6-0.7c1-1.3,0-3.2-1.6-3.2C188.2,17.3,187.3,19.2,188.2,20.5"/>
<path id="XMLID_107_" class="st1" d="M204.7,24.1c0,0.3,0.1,0.6,0.2,0.9c0.1,1.3-0.2,2.9-1.6,3.3c-0.9,0.2-1,1.4-0.2,1.9
	c0.8,0.4,1.8-0.3,1.5-1.2c-0.4-1.3,0.9-2.5,2.1-3c0.3-0.1,0.6-0.2,0.8-0.3c1.5-0.7,1.6-2.7,0.2-3.5
	C206.3,21.3,204.5,22.4,204.7,24.1"/>
<path id="XMLID_105_" class="st1" d="M217.2,35.4c-0.1,0.3-0.2,0.5-0.3,0.8c-0.5,1.2-1.7,2.4-3,2.1c-0.9-0.2-1.6,0.7-1.2,1.5
	c0.4,0.8,1.6,0.7,1.9-0.2c0.4-1.3,2-1.7,3.3-1.6c0.3,0,0.6,0.1,0.9,0.2c1.6,0.2,2.7-1.6,1.9-2.9C220,33.8,217.9,33.9,217.2,35.4"/>
<path id="XMLID_104_" class="st1" d="M222.4,51.5c-0.2,0.2-0.4,0.4-0.7,0.6c-1,0.7-2.7,1.3-3.6,0.3c-0.7-0.7-1.8-0.2-1.8,0.7
	c0,0.9,1.1,1.4,1.8,0.7c1-1,2.6-0.5,3.6,0.3c0.2,0.2,0.4,0.4,0.7,0.6c1.3,1,3.2,0,3.2-1.6C225.6,51.5,223.7,50.5,222.4,51.5"/>
<path id="XMLID_102_" class="st1" d="M218.8,68c-0.3,0-0.6,0.1-0.9,0.2c-1.3,0.1-2.9-0.2-3.3-1.6c-0.2-0.9-1.4-1-1.9-0.2
	c-0.4,0.8,0.3,1.8,1.2,1.5c1.3-0.4,2.5,0.9,3,2.1c0.1,0.3,0.2,0.6,0.3,0.8c0.7,1.5,2.7,1.6,3.5,0.2C221.6,69.6,220.5,67.8,218.8,68"
	/>
<path id="XMLID_101_" class="st1" d="M207.5,80.5c-0.3-0.1-0.5-0.2-0.8-0.3c-1.2-0.5-2.4-1.7-2.1-3c0.2-0.9-0.7-1.6-1.5-1.2
	c-0.8,0.4-0.7,1.6,0.2,1.9c1.3,0.4,1.7,2,1.6,3.3c0,0.3-0.1,0.6-0.2,0.9c-0.2,1.6,1.6,2.7,3,1.9C209.1,83.2,209,81.2,207.5,80.5"/>
<path id="XMLID_100_" class="st1" d="M191.4,85.7c-0.2-0.2-0.4-0.4-0.6-0.7c-0.7-1-1.3-2.7-0.3-3.6c0.7-0.7,0.2-1.8-0.7-1.8
	c-0.9,0-1.4,1.1-0.7,1.8c1,1,0.5,2.6-0.3,3.6c-0.2,0.2-0.4,0.4-0.6,0.7c-1,1.3,0,3.2,1.6,3.2C191.4,88.8,192.4,87,191.4,85.7"/>
<path id="XMLID_99_" class="st1" d="M174.9,82.1c0-0.3-0.1-0.6-0.2-0.9c-0.1-1.3,0.2-2.9,1.6-3.3c0.9-0.2,1-1.4,0.2-1.9
	c-0.8-0.4-1.8,0.3-1.5,1.2c0.4,1.3-0.9,2.5-2.1,3c-0.3,0.1-0.6,0.2-0.8,0.3c-1.5,0.7-1.6,2.7-0.2,3.5
	C173.3,84.8,175.1,83.7,174.9,82.1"/>
<path id="XMLID_98_" class="st1" d="M162.4,70.7c0.1-0.3,0.2-0.5,0.3-0.8c0.5-1.2,1.7-2.4,3-2.1c0.9,0.2,1.6-0.7,1.2-1.5
	c-0.4-0.8-1.7-0.7-1.9,0.2c-0.4,1.3-2,1.7-3.3,1.6c-0.3,0-0.6-0.1-0.9-0.2c-1.6-0.2-2.7,1.6-1.9,3C159.7,72.3,161.7,72.3,162.4,70.7
	"/>
<path id="XMLID_97_" class="st1" d="M157.2,54.7c0.2-0.2,0.4-0.4,0.7-0.6c1-0.7,2.7-1.3,3.6-0.3c0.7,0.7,1.8,0.2,1.8-0.7
	c0-0.9-1.1-1.4-1.8-0.7c-1,1-2.6,0.5-3.6-0.3c-0.3-0.2-0.4-0.4-0.7-0.6c-1.3-1-3.2,0-3.2,1.6C154.1,54.7,155.9,55.6,157.2,54.7"/>
<path id="XMLID_96_" class="st1" d="M160.8,38.2c0.3,0,0.6-0.1,0.9-0.2c1.3-0.1,2.9,0.2,3.3,1.6c0.2,0.9,1.4,1,1.9,0.2
	c0.4-0.8-0.3-1.8-1.2-1.5c-1.3,0.4-2.5-0.9-3-2.1c-0.1-0.3-0.2-0.6-0.3-0.8c-0.7-1.5-2.7-1.6-3.5-0.2
	C158.1,36.6,159.2,38.4,160.8,38.2"/>
<path id="XMLID_95_" class="st1" d="M172.2,25.7c0.3,0.1,0.5,0.2,0.8,0.3c1.1,0.5,2.4,1.7,2.1,3c-0.2,0.9,0.7,1.6,1.5,1.2
	c0.8-0.4,0.7-1.6-0.2-1.9c-1.3-0.4-1.7-2-1.6-3.3c0-0.3,0.1-0.6,0.2-0.9c0.2-1.6-1.6-2.7-3-1.9C170.6,22.9,170.6,25,172.2,25.7"/>
<g id="XMLID_62_">
	<g id="XMLID_137_">
		<path id="XMLID_150_" class="st3" d="M58.4,64.3c0,6.8-5.6,11.8-14.7,11.8c-9.3,0-14.3-5.6-14.9-6.3l2.8-5
			c3.2,3.6,7.7,5.7,12.2,5.7c5.8,0,9-2.4,9-6.1c0-3.1-3.5-5-8.8-5.9c-10.8-1.8-13.8-5.7-13.8-10.9c0-6.3,4.9-11.3,14-11.3
			c1.6,0,7.7,0.2,12.5,4.6L54,46c-2-2-5.1-4.1-10-4.1c-5.3,0-8.3,2-8.3,5.5c0,3,2.7,4.4,8.8,5.6C53.7,54.8,58.4,57.7,58.4,64.3z"/>
		<path id="XMLID_146_" class="st3" d="M89,75.6h-6.5l-9.6-13.4h-6.1v13.4h-5.5V56.7h13.8c4,0,7.4-2.1,7.4-7.1
			c0-5.1-3.3-7.2-7.3-7.2H61.3v-5.5h12c10.1,0,14.8,5.1,14.8,12.4c0,6-3.3,10.9-9.1,12.5L89,75.6z"/>
		<path id="XMLID_142_" class="st3" d="M121.4,56.2c0,10.7-7.2,19.4-19.8,19.4H90.1v-5.5h13c7.6,0,12.8-6.2,12.8-13.8
			c0-7.7-5.3-13.8-12.8-13.8h-13v-5.5h11.6C114.6,36.9,121.4,45.5,121.4,56.2z"/>
		<path id="XMLID_140_" class="st3" d="M153.9,75.6h-7.4l-15.7-17.1v17.1h-5.5V36.9h5.5v17.1l14.8-17.1h7.4l-17.1,19L153.9,75.6z"/>
	</g>
</g>
<g id="XMLID_28_">
	<path id="XMLID_60_" class="st4" d="M259,63.5c0,6.7-4.7,11.7-12.5,11.7h-14.3v-5.5h13.4c4.8,0,7.8-2,7.8-6.2
		c0-4.3-3.1-6.2-7.8-6.2h-13.4v-5.5h12.5c4.4,0,6.9-1.5,6.9-4.8c0-3.3-2.5-4.8-6.9-4.8h-12.5v-5.5h11.6c8.4,0,13.3,3.5,13.3,10.2
		c0,3.9-2.1,6.8-4.6,7.8C257.1,55.4,259,59.6,259,63.5z"/>
	<path id="XMLID_58_" class="st4" d="M263,75.2V36.4h5.5v38.8H263z"/>
	<path id="XMLID_54_" class="st4" d="M290.5,36v5.6c-7.2,0.8-12.7,6.8-12.7,14.2c0,7.4,5.5,13.4,12.7,14.2v5.6
		c-10.2-0.8-18.3-9.4-18.3-19.8S280.2,36.8,290.5,36z M311.9,55.8c0,10.4-8,19-18.3,19.8V70c7.2-0.8,12.7-6.8,12.7-14.2
		s-5.5-13.4-12.7-14.2V36C303.9,36.8,311.9,45.3,311.9,55.8z"/>
	<path id="XMLID_52_" class="st4" d="M343.6,65.9l2.4,5.2c-3.2,3-7.9,4.6-12.1,4.6c-11.1,0-20.2-8.9-20.2-19.8
		c0-11,9.1-19.8,20.2-19.8c4.2,0,8.9,1.5,12.1,4.5l-2.4,5.2c-2.7-2.7-5.7-4.2-10.1-4.2c-7.9,0-14.3,6.4-14.3,14.3
		s6.4,14.3,14.3,14.3C337.9,70.1,341,68.6,343.6,65.9z"/>
	<path id="XMLID_48_" class="st4" d="M349.3,36.4h5.5v38.8h-5.5V36.4z M358.1,58.5V53H370v5.5H358.1z M378.9,36.4v38.8h-5.5V58.5
		h-0.1V53h0.1V36.4H378.9z"/>
	<path id="XMLID_44_" class="st4" d="M404.2,36.4v5.5h-22.2v-5.5H404.2z M382.1,58.5v-5.5h19.4v5.5H382.1z M387.6,69.6h16.6v5.5
		h-22.2v-5.6L387.6,69.6L387.6,69.6z"/>
	<path id="XMLID_40_" class="st4" d="M409.1,49.4l4.2,8l-2.8,17.7h-5.7L409.1,49.4z M443.1,44.3l-16.6,31.8l-16.6-31.8l1.5-8.8
		l15.1,29.3l15.1-29.3L443.1,44.3z M448.2,75.2h-5.7l-2.9-17.7l4.2-8.1L448.2,75.2z"/>
	<path id="XMLID_38_" class="st4" d="M451.6,75.2V36.4h5.5v38.8H451.6z"/>
	<path id="XMLID_36_" class="st4" d="M490.8,65.9l2.4,5.2c-3.2,3-7.9,4.6-12.1,4.6c-11.1,0-20.2-8.9-20.2-19.8
		c0-11,9.1-19.8,20.2-19.8c4.2,0,8.9,1.5,12.1,4.5l-2.4,5.2c-2.7-2.7-5.7-4.2-10.1-4.2c-7.9,0-14.3,6.4-14.3,14.3
		s6.4,14.3,14.3,14.3C485.1,70.1,488.1,68.6,490.8,65.9z"/>
	<path id="XMLID_34_" class="st4" d="M529.8,75.2h-6l-3.8-8.3h0l-8.7-19.2l-8.7,19.2h0l-3.8,8.3h-6l18.5-39.7L529.8,75.2z"/>
	<path id="XMLID_31_" class="st4" d="M531.9,36.4h5.5v38.8h-5.5V36.4z M540.6,75.2v-5.5h12.5v5.5H540.6z"/>
	<path id="XMLID_29_" class="st4" d="M582.8,63.8c0,6.8-5.6,11.8-14.7,11.8c-9.3,0-14.3-5.6-14.9-6.3l2.8-5
		c3.2,3.6,7.7,5.7,12.2,5.7c5.8,0,9-2.4,9-6.1c0-3.1-3.5-5-8.8-5.9c-10.8-1.8-13.8-5.7-13.8-10.9c0-6.3,4.9-11.3,14-11.3
		c1.6,0,7.7,0.2,12.5,4.6l-2.7,5c-2-2-5.1-4.1-10-4.1c-5.3,0-8.3,2-8.3,5.5c0,3,2.7,4.4,8.8,5.6C578.2,54.3,582.8,57.3,582.8,63.8z"
		/>
</g>
</svg>
