<?xml version="1.0" encoding="utf-8"?>
<!-- Generator: Adobe Illustrator 19.0.0, SVG Export Plug-In . SVG Version: 6.00 Build 0)  -->
<svg version="1.1" id="Layer_1" xmlns="http://www.w3.org/2000/svg" xmlns:xlink="http://www.w3.org/1999/xlink" x="0px" y="0px"
	 viewBox="0 0 612 98.3" style="enable-background:new 0 0 612 98.3;" xml:space="preserve">
<style type="text/css">
	.st0{fill:#FFFFFF;}
	.st1{fill-rule:evenodd;clip-rule:evenodd;fill:#F47A32;}
	.st2{fill-rule:evenodd;clip-rule:evenodd;fill:#10706E;}
	.st3{fill-rule:evenodd;clip-rule:evenodd;fill:#1B3B3D;}
	.st4{fill:#1B3B3D;}
	.st5{fill:#10706E;}
</style>
<rect id="XMLID_27_" class="st0" width="612" height="98.3"/>
<g id="XMLID_64_">
	<path id="XMLID_213_" class="st1" d="M189.1,47c2-0.5,4,0.6,4.6,2.6c0.5,2-0.6,4-2.6,4.5c-2,0.5-4-0.6-4.6-2.6
		C185.9,49.5,187.1,47.5,189.1,47"/>
	<path id="XMLID_212_" class="st2" d="M184.9,37.6c0.2,0.2,0.5,0.3,0.7,0.5c1,0.8,1.9,2.2,1.2,3.4c-0.5,0.8,0.3,1.7,1.2,1.5
		c0.9-0.2,1.1-1.4,0.2-1.9c-1.2-0.7-1.1-2.4-0.7-3.6c0.1-0.3,0.3-0.5,0.4-0.8c0.6-1.5-0.8-3-2.3-2.6
		C184.1,34.6,183.6,36.6,184.9,37.6"/>
	<path id="XMLID_174_" class="st3" d="M180.3,27.2c0.2-0.6,0.6-1.1,0.8-1.7c0.9-2.5,1.1-6.1-1.4-7.5c-1.7-1-1.3-3.5,0.5-4
		c1.8-0.5,3.4,1.5,2.4,3.2c-1.4,2.5,0.5,5.5,2.5,7.2c0.5,0.4,1,0.7,1.5,1c2.7,2.1,1.7,6.4-1.5,7.2C182,33.6,179,30.4,180.3,27.2"/>
	<path id="XMLID_173_" class="st2" d="M193.2,25.5c0.5-0.4,1-0.6,1.5-1c2-1.7,4-4.7,2.5-7.2c-1-1.7,0.6-3.6,2.4-3.2
		c1.8,0.5,2.2,3,0.5,4c-2.5,1.4-2.3,5-1.4,7.5c0.2,0.6,0.6,1.1,0.8,1.7c1.3,3.2-1.7,6.4-4.9,5.5C191.5,31.8,190.5,27.6,193.2,25.5"
		/>
	<path id="XMLID_170_" class="st3" d="M192,36.8c0.1,0.3,0.3,0.5,0.4,0.8c0.5,1.2,0.5,2.9-0.7,3.6c-0.8,0.5-0.6,1.7,0.2,1.9
		c0.9,0.2,1.6-0.7,1.2-1.5c-0.7-1.2,0.2-2.6,1.2-3.4c0.2-0.2,0.5-0.3,0.7-0.5c1.3-1,0.8-3-0.7-3.5C192.8,33.7,191.4,35.2,192,36.8"
		/>
	<path id="XMLID_167_" class="st3" d="M205.3,30.5c0.6-0.1,1.2,0,1.8-0.1c2.6-0.4,5.8-2.1,5.8-5c0-2,2.4-2.8,3.7-1.5
		c1.3,1.3,0.4,3.7-1.5,3.7c-2.9,0-4.5,3.2-5,5.8c-0.1,0.6-0.1,1.2-0.1,1.8c-0.5,3.4-4.7,4.7-7,2.3C200.7,35.1,201.9,31,205.3,30.5"
		/>
	<path id="XMLID_163_" class="st3" d="M198.6,39.6c0,0.3,0,0.6-0.1,0.9c-0.2,1.2-1,2.8-2.4,2.8c-0.9,0-1.4,1.1-0.7,1.8
		c0.6,0.6,1.8,0.2,1.8-0.7c0-1.4,1.5-2.2,2.8-2.4c0.3,0,0.6,0,0.9-0.1c1.6-0.2,2.2-2.2,1.1-3.3C200.8,37.4,198.8,38,198.6,39.6"/>
	<path id="XMLID_162_" class="st2" d="M213.3,40.8c0.6,0.2,1.1,0.6,1.7,0.8c2.5,0.9,6.1,1.1,7.5-1.4c1-1.7,3.5-1.3,4,0.5
		c0.5,1.8-1.5,3.4-3.2,2.4c-2.5-1.4-5.5,0.5-7.2,2.6c-0.4,0.5-0.7,1-1,1.5c-2.1,2.7-6.4,1.7-7.2-1.5
		C206.9,42.5,210.1,39.6,213.3,40.8"/>
	<path id="XMLID_161_" class="st2" d="M202.9,45.4c-0.2,0.2-0.3,0.5-0.5,0.7c-0.8,1-2.2,1.9-3.4,1.2c-0.8-0.5-1.7,0.3-1.5,1.2
		c0.2,0.9,1.4,1.1,1.9,0.3c0.7-1.2,2.4-1.1,3.6-0.7c0.3,0.1,0.5,0.3,0.8,0.4c1.5,0.6,3-0.8,2.6-2.3
		C205.9,44.6,203.9,44.1,202.9,45.4"/>
	<path id="XMLID_158_" class="st3" d="M215,53.8c0.4,0.5,0.6,1,1,1.5c1.7,2,4.7,4,7.2,2.5c1.7-1,3.6,0.6,3.2,2.4
		c-0.5,1.8-3,2.2-4,0.5c-1.4-2.5-5-2.3-7.5-1.4c-0.6,0.2-1.1,0.6-1.7,0.8c-3.2,1.3-6.4-1.7-5.5-4.9C208.6,52.1,212.9,51.1,215,53.8"
		/>
	<path id="XMLID_157_" class="st2" d="M203.7,52.5c-0.3,0.1-0.5,0.3-0.8,0.4c-1.2,0.5-2.9,0.5-3.6-0.7c-0.5-0.8-1.7-0.6-1.9,0.2
		c-0.2,0.9,0.7,1.6,1.5,1.2c1.2-0.7,2.7,0.2,3.4,1.2c0.2,0.2,0.3,0.5,0.5,0.7c1,1.3,3,0.8,3.5-0.7C206.7,53.4,205.2,51.9,203.7,52.5
		"/>
	<path id="XMLID_156_" class="st2" d="M210,65.9c0.1,0.6,0,1.2,0.1,1.8c0.4,2.6,2.1,5.8,5,5.8c2,0,2.8,2.4,1.5,3.7
		c-1.3,1.3-3.7,0.4-3.7-1.5c0-2.9-3.2-4.5-5.8-5c-0.6-0.1-1.2-0.1-1.8-0.1c-3.4-0.5-4.7-4.7-2.3-7C205.4,61.2,209.5,62.4,210,65.9"
		/>
	<path id="XMLID_153_" class="st3" d="M200.8,59.1c-0.3,0-0.6,0-0.9-0.1c-1.2-0.2-2.8-1-2.8-2.4c0-0.9-1.1-1.4-1.8-0.7
		c-0.6,0.6-0.2,1.8,0.7,1.8c1.4,0,2.2,1.5,2.4,2.8c0,0.3,0,0.6,0.1,0.9c0.2,1.6,2.2,2.2,3.4,1.1C203.1,61.4,202.5,59.4,200.8,59.1"
		/>
	<path id="XMLID_150_" class="st3" d="M199.6,73.8c-0.2,0.6-0.6,1.1-0.8,1.7c-0.9,2.5-1.1,6.1,1.4,7.5c1.7,1,1.3,3.5-0.5,4
		c-1.8,0.5-3.4-1.5-2.4-3.2c1.4-2.5-0.5-5.5-2.5-7.2c-0.5-0.4-1-0.7-1.5-1c-2.7-2.1-1.7-6.4,1.5-7.2
		C197.9,67.5,200.9,70.6,199.6,73.8"/>
	<path id="XMLID_147_" class="st3" d="M195.1,63.4c-0.2-0.2-0.5-0.3-0.7-0.5c-1-0.8-1.9-2.2-1.2-3.4c0.5-0.8-0.3-1.7-1.2-1.5
		c-0.9,0.2-1.1,1.4-0.2,1.9c1.2,0.7,1.1,2.4,0.7,3.6c-0.1,0.3-0.3,0.5-0.4,0.8c-0.6,1.5,0.8,3,2.3,2.6
		C195.9,66.5,196.4,64.4,195.1,63.4"/>
	<path id="XMLID_146_" class="st2" d="M186.7,75.5c-0.5,0.4-1,0.6-1.5,1c-2,1.7-4,4.7-2.5,7.2c1,1.7-0.6,3.6-2.4,3.2
		c-1.8-0.5-2.2-3-0.5-4c2.5-1.4,2.3-5,1.4-7.5c-0.2-0.6-0.6-1.1-0.8-1.7c-1.3-3.2,1.7-6.4,4.9-5.5C188.4,69.2,189.4,73.4,186.7,75.5
		"/>
	<path id="XMLID_145_" class="st2" d="M187.9,64.2c-0.1-0.3-0.3-0.5-0.4-0.8c-0.5-1.2-0.5-2.9,0.7-3.6c0.8-0.5,0.6-1.7-0.2-1.9
		c-0.9-0.2-1.6,0.7-1.2,1.5c0.7,1.2-0.2,2.6-1.2,3.4c-0.2,0.2-0.5,0.3-0.7,0.5c-1.3,1-0.8,3,0.7,3.5
		C187.1,67.3,188.5,65.8,187.9,64.2"/>
	<path id="XMLID_142_" class="st3" d="M174.6,70.5c-0.6,0.1-1.2,0-1.8,0.1c-2.6,0.4-5.8,2.1-5.8,5c0,2-2.4,2.8-3.7,1.5
		c-1.3-1.3-0.4-3.7,1.5-3.7c2.9,0,4.5-3.2,5-5.8c0.1-0.6,0.1-1.2,0.1-1.8c0.5-3.4,4.7-4.7,7-2.3C179.3,65.9,178,70,174.6,70.5"/>
	<path id="XMLID_141_" class="st2" d="M181.3,61.4c0-0.3,0-0.6,0.1-0.9c0.2-1.2,1-2.8,2.4-2.8c0.9,0,1.4-1.1,0.7-1.8
		c-0.6-0.6-1.8-0.2-1.8,0.7c0,1.4-1.5,2.2-2.8,2.4c-0.3,0-0.6,0-0.9,0.1c-1.6,0.2-2.2,2.2-1.1,3.4C179.1,63.6,181.1,63,181.3,61.4"
		/>
	<path id="XMLID_140_" class="st2" d="M166.7,60.2c-0.6-0.2-1.1-0.6-1.7-0.8c-2.5-0.9-6.1-1.1-7.5,1.4c-1,1.7-3.5,1.3-4-0.5
		c-0.5-1.8,1.5-3.4,3.2-2.4c2.5,1.4,5.5-0.5,7.2-2.5c0.4-0.5,0.7-1,1-1.5c2.1-2.7,6.4-1.7,7.2,1.5C173,58.5,169.9,61.5,166.7,60.2"
		/>
	<path id="XMLID_137_" class="st3" d="M177.1,55.6c0.2-0.2,0.3-0.5,0.5-0.7c0.8-1,2.2-1.9,3.4-1.2c0.8,0.5,1.7-0.3,1.5-1.2
		c-0.2-0.9-1.4-1.1-1.9-0.2c-0.7,1.2-2.4,1.1-3.6,0.7c-0.3-0.1-0.5-0.3-0.8-0.4c-1.5-0.6-3,0.8-2.6,2.4
		C174,56.4,176,56.9,177.1,55.6"/>
	<path id="XMLID_133_" class="st3" d="M164.9,47.2c-0.4-0.5-0.6-1-1-1.5c-1.7-2-4.7-4-7.2-2.6c-1.7,1-3.6-0.6-3.2-2.4
		c0.5-1.8,3-2.2,4-0.5c1.4,2.5,5,2.3,7.5,1.4c0.6-0.2,1.1-0.6,1.7-0.8c3.2-1.3,6.4,1.7,5.5,4.9C171.3,48.9,167.1,49.9,164.9,47.2"/>
	<path id="XMLID_130_" class="st3" d="M176.2,48.5c0.3-0.1,0.5-0.3,0.8-0.4c1.2-0.5,2.9-0.5,3.6,0.7c0.5,0.8,1.7,0.6,1.9-0.3
		c0.2-0.9-0.7-1.6-1.5-1.2c-1.2,0.7-2.6-0.2-3.4-1.2c-0.2-0.2-0.3-0.5-0.5-0.7c-1-1.3-3-0.8-3.5,0.7
		C173.2,47.7,174.7,49.1,176.2,48.5"/>
	<path id="XMLID_125_" class="st2" d="M169.9,35.2c-0.1-0.6,0-1.2-0.1-1.8c-0.4-2.6-2.1-5.8-5-5.8c-2,0-2.8-2.4-1.5-3.7
		c1.3-1.3,3.7-0.4,3.7,1.5c0,2.9,3.2,4.5,5.8,5c0.6,0.1,1.2,0.1,1.8,0.1c3.4,0.5,4.7,4.7,2.3,7C174.6,39.8,170.4,38.6,169.9,35.2"/>
	<path id="XMLID_120_" class="st2" d="M179.1,41.9c0.3,0,0.6,0,0.9,0.1c1.2,0.2,2.8,1,2.8,2.4c0,0.9,1.1,1.4,1.8,0.7
		c0.6-0.6,0.2-1.8-0.7-1.8c-1.4,0-2.2-1.5-2.4-2.8c0-0.3,0-0.6-0.1-0.9c-0.2-1.6-2.2-2.2-3.4-1.1C176.9,39.7,177.5,41.6,179.1,41.9"
		/>
	<path id="XMLID_116_" class="st2" d="M188.4,17.9c0.2,0.2,0.4,0.4,0.6,0.7c0.7,1,1.3,2.7,0.3,3.6c-0.7,0.7-0.2,1.8,0.7,1.8
		c0.9,0,1.4-1.1,0.7-1.8c-1-1-0.5-2.6,0.3-3.6c0.2-0.2,0.4-0.4,0.6-0.7c1-1.3,0-3.2-1.6-3.2C188.4,14.8,187.4,16.6,188.4,17.9"/>
	<path id="XMLID_115_" class="st2" d="M204.9,21.5c0,0.3,0.1,0.6,0.2,0.9c0.1,1.3-0.2,2.9-1.6,3.3c-0.9,0.2-1,1.4-0.2,1.9
		c0.8,0.4,1.8-0.3,1.5-1.2c-0.4-1.3,0.9-2.5,2.1-3c0.3-0.1,0.6-0.2,0.8-0.3c1.5-0.7,1.6-2.7,0.2-3.5
		C206.5,18.8,204.7,19.9,204.9,21.5"/>
	<path id="XMLID_113_" class="st2" d="M217.4,32.8c-0.1,0.3-0.2,0.5-0.3,0.8c-0.5,1.2-1.7,2.4-3,2.1c-0.9-0.2-1.6,0.7-1.2,1.5
		c0.4,0.8,1.6,0.7,1.9-0.2c0.4-1.3,2-1.7,3.3-1.6c0.3,0,0.6,0.1,0.9,0.2c1.6,0.2,2.7-1.6,1.9-2.9C220.1,31.3,218,31.3,217.4,32.8"/>
	<path id="XMLID_112_" class="st2" d="M222.6,48.9c-0.2,0.2-0.4,0.4-0.7,0.6c-1,0.7-2.7,1.3-3.6,0.3c-0.7-0.7-1.8-0.2-1.8,0.7
		c0,0.9,1.1,1.4,1.8,0.7c1-1,2.6-0.5,3.6,0.3c0.2,0.2,0.4,0.4,0.7,0.6c1.3,1,3.2,0,3.2-1.6C225.7,48.9,223.9,47.9,222.6,48.9"/>
	<path id="XMLID_110_" class="st2" d="M219,65.4c-0.3,0-0.6,0.1-0.9,0.2c-1.3,0.1-2.9-0.2-3.3-1.6c-0.2-0.9-1.4-1-1.9-0.2
		c-0.4,0.8,0.3,1.8,1.2,1.5c1.3-0.4,2.5,0.9,3,2.1c0.1,0.3,0.2,0.6,0.3,0.8c0.7,1.5,2.7,1.6,3.5,0.2C221.7,67,220.6,65.2,219,65.4"
		/>
	<path id="XMLID_108_" class="st2" d="M207.6,77.9c-0.3-0.1-0.5-0.2-0.8-0.3c-1.2-0.5-2.4-1.7-2.1-3c0.2-0.9-0.7-1.6-1.5-1.2
		c-0.8,0.4-0.7,1.6,0.2,1.9c1.3,0.4,1.7,2,1.6,3.3c0,0.3-0.1,0.6-0.2,0.9c-0.2,1.6,1.6,2.7,3,1.9C209.2,80.7,209.2,78.6,207.6,77.9"
		/>
	<path id="XMLID_106_" class="st2" d="M191.6,83.1c-0.2-0.2-0.4-0.4-0.6-0.7c-0.7-1-1.3-2.7-0.3-3.6c0.7-0.7,0.2-1.8-0.7-1.8
		c-0.9,0-1.4,1.1-0.7,1.8c1,1,0.5,2.6-0.3,3.6c-0.2,0.2-0.4,0.4-0.6,0.7c-1,1.3,0,3.2,1.6,3.2C191.6,86.2,192.5,84.4,191.6,83.1"/>
	<path id="XMLID_103_" class="st2" d="M175.1,79.5c0-0.3-0.1-0.6-0.2-0.9c-0.1-1.3,0.2-2.9,1.6-3.3c0.9-0.2,1-1.4,0.2-1.9
		c-0.8-0.4-1.8,0.3-1.5,1.2c0.4,1.3-0.9,2.5-2.1,3c-0.3,0.1-0.6,0.2-0.8,0.3c-1.5,0.7-1.6,2.7-0.2,3.5
		C173.5,82.2,175.2,81.2,175.1,79.5"/>
	<path id="XMLID_76_" class="st2" d="M162.6,68.2c0.1-0.3,0.2-0.5,0.3-0.8c0.5-1.2,1.7-2.4,3-2.1c0.9,0.2,1.6-0.7,1.2-1.5
		c-0.4-0.8-1.7-0.7-1.9,0.2c-0.4,1.3-2,1.7-3.3,1.6c-0.3,0-0.6-0.1-0.9-0.2c-1.6-0.2-2.7,1.6-1.9,3
		C159.8,69.7,161.9,69.7,162.6,68.2"/>
	<path id="XMLID_75_" class="st2" d="M157.4,52.1c0.2-0.2,0.4-0.4,0.7-0.6c1-0.7,2.7-1.3,3.6-0.3c0.7,0.7,1.8,0.2,1.8-0.7
		c0-0.9-1.1-1.4-1.8-0.7c-1,1-2.6,0.5-3.6-0.3c-0.3-0.2-0.4-0.4-0.7-0.6c-1.3-1-3.2,0-3.2,1.6C154.2,52.1,156.1,53.1,157.4,52.1"/>
	<path id="XMLID_74_" class="st2" d="M161,35.6c0.3,0,0.6-0.1,0.9-0.2c1.3-0.1,2.9,0.2,3.3,1.6c0.2,0.9,1.4,1,1.9,0.2
		c0.4-0.8-0.3-1.8-1.2-1.5c-1.3,0.4-2.5-0.9-3-2.1c-0.1-0.3-0.2-0.6-0.3-0.8c-0.7-1.5-2.7-1.6-3.5-0.2C158.2,34,159.3,35.8,161,35.6
		"/>
	<path id="XMLID_73_" class="st2" d="M172.3,23.1c0.3,0.1,0.5,0.2,0.8,0.3c1.1,0.5,2.4,1.7,2.1,3c-0.2,0.9,0.7,1.6,1.5,1.2
		c0.8-0.4,0.7-1.6-0.2-1.9c-1.3-0.4-1.7-2-1.6-3.3c0-0.3,0.1-0.6,0.2-0.9c0.2-1.6-1.6-2.7-3-1.9C170.7,20.4,170.8,22.4,172.3,23.1"
		/>
</g>
<g id="XMLID_118_">
	<g id="XMLID_69_">
		<path id="XMLID_80_" class="st4" d="M58.6,61.7c0,6.8-5.6,11.8-14.7,11.8c-9.3,0-14.3-5.6-14.9-6.3l2.8-5C35,65.8,39.5,68,44,68
			c5.8,0,9-2.4,9-6.1c0-3.1-3.5-5-8.8-5.9c-10.8-1.8-13.8-5.7-13.8-10.9c0-6.3,4.9-11.3,14-11.3c1.6,0,7.7,0.2,12.5,4.6l-2.7,5
			c-2-2-5.1-4.1-10-4.1c-5.3,0-8.3,2-8.3,5.5c0,3,2.7,4.4,8.8,5.6C53.9,52.2,58.6,55.2,58.6,61.7z"/>
		<path id="XMLID_78_" class="st4" d="M89.1,73.1h-6.5L73,59.7H67v13.4h-5.5V54.1h13.8c4,0,7.4-2.1,7.4-7.1c0-5.1-3.3-7.2-7.3-7.2
			H61.4v-5.5h12c10.1,0,14.8,5.1,14.8,12.4c0,6-3.3,10.9-9.1,12.5L89.1,73.1z"/>
		<path id="XMLID_72_" class="st4" d="M121.6,53.7c0,10.7-7.2,19.4-19.8,19.4H90.2v-5.5h13c7.6,0,12.8-6.2,12.8-13.8
			c0-7.7-5.3-13.8-12.8-13.8h-13v-5.5h11.6C114.7,34.3,121.6,42.9,121.6,53.7z"/>
		<path id="XMLID_70_" class="st4" d="M154,73.1h-7.4L131,56v17.1h-5.5V34.3h5.5v17.1l14.8-17.1h7.4l-17.1,19L154,73.1z"/>
	</g>
</g>
<g id="XMLID_63_">
	<path id="XMLID_180_" class="st5" d="M259.1,60.9c0,6.7-4.7,11.7-12.5,11.7h-14.3V67h13.4c4.8,0,7.8-2,7.8-6.2
		c0-4.3-3.1-6.2-7.8-6.2h-13.4V49h12.5c4.4,0,6.9-1.5,6.9-4.8c0-3.3-2.5-4.8-6.9-4.8h-12.5v-5.5h11.6c8.4,0,13.3,3.5,13.3,10.2
		c0,3.9-2.1,6.8-4.6,7.8C257.2,52.8,259.1,57.1,259.1,60.9z"/>
	<path id="XMLID_182_" class="st5" d="M263.1,72.6V33.8h5.5v38.8H263.1z"/>
	<path id="XMLID_184_" class="st5" d="M290.6,33.4V39c-7.2,0.8-12.7,6.8-12.7,14.2c0,7.4,5.5,13.4,12.7,14.2V73
		c-10.2-0.8-18.3-9.4-18.3-19.8S280.4,34.2,290.6,33.4z M312,53.2c0,10.4-8,19-18.3,19.8v-5.6c7.2-0.8,12.7-6.8,12.7-14.2
		S301,39.7,293.8,39v-5.6C304,34.2,312,42.8,312,53.2z"/>
	<path id="XMLID_187_" class="st5" d="M343.8,63.3l2.4,5.2c-3.2,3-7.9,4.6-12.1,4.6c-11.1,0-20.2-8.9-20.2-19.8
		c0-11,9.1-19.8,20.2-19.8c4.2,0,8.9,1.5,12.1,4.5l-2.4,5.2c-2.7-2.7-5.7-4.2-10.1-4.2c-7.9,0-14.3,6.4-14.3,14.3
		s6.4,14.3,14.3,14.3C338.1,67.5,341.1,66.1,343.8,63.3z"/>
	<path id="XMLID_189_" class="st5" d="M349.5,33.8h5.5v38.8h-5.5V33.8z M358.3,56v-5.5h11.9V56H358.3z M379,33.8v38.8h-5.5V56h-0.1
		v-5.5h0.1V33.8H379z"/>
	<path id="XMLID_193_" class="st5" d="M404.4,33.8v5.5h-22.2v-5.5H404.4z M382.2,56v-5.5h19.4V56H382.2z M387.7,67h16.6v5.5h-22.2
		V67L387.7,67L387.7,67z"/>
	<path id="XMLID_197_" class="st5" d="M409.2,46.9l4.2,8l-2.8,17.7H405L409.2,46.9z M443.2,41.7l-16.6,31.8l-16.6-31.8l1.5-8.8
		l15.1,29.3l15.1-29.3L443.2,41.7z M448.3,72.6h-5.7l-2.9-17.7l4.2-8.1L448.3,72.6z"/>
	<path id="XMLID_201_" class="st5" d="M451.7,72.6V33.8h5.5v38.8H451.7z"/>
	<path id="XMLID_203_" class="st5" d="M490.9,63.3l2.4,5.2c-3.2,3-7.9,4.6-12.1,4.6C470,73,461,64.2,461,53.2
		c0-11,9.1-19.8,20.2-19.8c4.2,0,8.9,1.5,12.1,4.5l-2.4,5.2c-2.7-2.7-5.7-4.2-10.1-4.2c-7.9,0-14.3,6.4-14.3,14.3
		s6.4,14.3,14.3,14.3C485.2,67.5,488.3,66.1,490.9,63.3z"/>
	<path id="XMLID_205_" class="st5" d="M530,72.6h-6l-3.8-8.3h0l-8.7-19.2l-8.7,19.2h0l-3.8,8.3h-6l18.5-39.7L530,72.6z"/>
	<path id="XMLID_207_" class="st5" d="M532.1,33.8h5.5v38.8h-5.5V33.8z M540.8,72.6V67h12.5v5.5H540.8z"/>
	<path id="XMLID_210_" class="st5" d="M583,61.2c0,6.8-5.6,11.8-14.7,11.8c-9.3,0-14.3-5.6-14.9-6.3l2.8-5c3.2,3.6,7.7,5.7,12.2,5.7
		c5.8,0,9-2.4,9-6.1c0-3.1-3.5-5-8.8-5.9c-10.8-1.8-13.8-5.7-13.8-10.9c0-6.3,4.9-11.3,14-11.3c1.6,0,7.7,0.2,12.5,4.6l-2.7,5
		c-2-2-5.1-4.1-10-4.1c-5.3,0-8.3,2-8.3,5.5c0,3,2.7,4.4,8.8,5.6C578.3,51.8,583,54.7,583,61.2z"/>
</g>
</svg>
