<?xml version="1.0" encoding="utf-8"?>
<!-- Generator: Adobe Illustrator 19.0.0, SVG Export Plug-In . SVG Version: 6.00 Build 0)  -->
<svg version="1.1" id="Layer_1" xmlns="http://www.w3.org/2000/svg" xmlns:xlink="http://www.w3.org/1999/xlink" x="0px" y="0px"
	 viewBox="0 0 612 98.3" style="enable-background:new 0 0 612 98.3;" xml:space="preserve">
<style type="text/css">
	.st0{fill-rule:evenodd;clip-rule:evenodd;fill:#F47A32;}
	.st1{fill-rule:evenodd;clip-rule:evenodd;fill:#10706E;}
	.st2{fill-rule:evenodd;clip-rule:evenodd;fill:#9BD9E7;}
	.st3{fill:#9BD9E7;}
</style>
<path id="XMLID_213_" class="st0" d="M189,46.5c2.2-0.6,4.5,0.7,5.2,2.9c0.6,2.2-0.7,4.4-3,5c-2.2,0.6-4.5-0.7-5.1-2.9
	C185.4,49.4,186.7,47.1,189,46.5"/>
<path id="XMLID_212_" class="st1" d="M184.2,36c0.3,0.2,0.5,0.3,0.8,0.6c1.1,0.9,2.1,2.5,1.4,3.9c-0.5,0.9,0.3,2,1.3,1.7
	c1-0.3,1.2-1.6,0.3-2.1c-1.3-0.8-1.3-2.7-0.7-4c0.1-0.3,0.3-0.6,0.4-0.9c0.7-1.7-0.9-3.4-2.6-3C183.3,32.6,182.8,34.8,184.2,36"/>
<path id="XMLID_174_" class="st2" d="M179.1,24.3c0.3-0.6,0.6-1.2,0.9-1.9c1.1-2.8,1.3-6.8-1.6-8.4c-1.9-1.1-1.4-3.9,0.6-4.4
	c2-0.5,3.8,1.6,2.7,3.6c-1.6,2.8,0.6,6.2,2.9,8.1c0.6,0.5,1.2,0.7,1.7,1.2c3,2.4,1.9,7.2-1.7,8.1C181,31.4,177.7,27.9,179.1,24.3"/>
<path id="XMLID_173_" class="st2" d="M193.7,22.4c0.5-0.4,1.1-0.7,1.7-1.2c2.3-1.9,4.5-5.3,2.9-8.1c-1.1-1.9,0.7-4.1,2.7-3.6
	c2,0.5,2.5,3.3,0.6,4.4c-2.8,1.6-2.6,5.7-1.6,8.4c0.3,0.7,0.6,1.2,0.9,1.9c1.4,3.6-1.9,7.2-5.5,6.2
	C191.7,29.5,190.6,24.8,193.7,22.4"/>
<path id="XMLID_170_" class="st2" d="M192.3,35.1c0.1,0.3,0.3,0.6,0.4,0.9c0.5,1.3,0.6,3.3-0.7,4c-0.9,0.5-0.7,1.9,0.3,2.1
	c1,0.3,1.8-0.8,1.3-1.7c-0.8-1.3,0.3-3,1.4-3.9c0.3-0.2,0.6-0.4,0.8-0.6c1.5-1.2,0.9-3.4-0.8-3.9C193.2,31.6,191.6,33.3,192.3,35.1"
	/>
<path id="XMLID_167_" class="st2" d="M207.2,28c0.7-0.1,1.3-0.1,2.1-0.2c2.9-0.5,6.5-2.3,6.5-5.6c0-2.2,2.7-3.2,4.1-1.7
	c1.5,1.5,0.5,4.1-1.7,4.1c-3.2,0-5.1,3.6-5.6,6.5c-0.1,0.7-0.1,1.4-0.2,2.1c-0.6,3.8-5.2,5.2-7.9,2.6C202,33.2,203.4,28.5,207.2,28"
	/>
<path id="XMLID_163_" class="st2" d="M199.7,38.3c0,0.3,0,0.6-0.1,1c-0.2,1.4-1.1,3.1-2.7,3.1c-1.1,0-1.5,1.3-0.8,2
	c0.7,0.7,2,0.2,2-0.8c0-1.6,1.7-2.4,3.1-2.7c0.3-0.1,0.7,0,1-0.1c1.8-0.3,2.5-2.5,1.2-3.8C202.2,35.8,199.9,36.4,199.7,38.3"/>
<path id="XMLID_162_" class="st1" d="M216.2,39.6c0.6,0.3,1.2,0.6,1.9,0.9c2.8,1.1,6.8,1.3,8.4-1.6c1.1-1.9,3.9-1.4,4.4,0.6
	c0.5,2-1.6,3.8-3.6,2.7c-2.8-1.6-6.2,0.6-8.1,2.9c-0.5,0.6-0.7,1.2-1.2,1.7c-2.4,3-7.2,1.9-8.1-1.7C209,41.5,212.6,38.2,216.2,39.6"
	/>
<path id="XMLID_161_" class="st1" d="M204.5,44.8c-0.2,0.3-0.3,0.5-0.6,0.8c-0.9,1.1-2.5,2.1-3.9,1.4c-0.9-0.5-2,0.3-1.7,1.3
	c0.3,1,1.6,1.2,2.1,0.3c0.8-1.3,2.7-1.3,4-0.7c0.3,0.1,0.6,0.3,0.9,0.4c1.7,0.7,3.4-0.9,3-2.6C207.9,43.9,205.6,43.3,204.5,44.8"/>
<path id="XMLID_158_" class="st2" d="M218.1,54.2c0.4,0.5,0.7,1.1,1.2,1.7c1.9,2.3,5.3,4.5,8.1,2.9c1.9-1.1,4.1,0.7,3.6,2.7
	c-0.5,2-3.3,2.5-4.4,0.6c-1.6-2.8-5.7-2.6-8.4-1.6c-0.7,0.3-1.2,0.6-1.9,0.9c-3.6,1.4-7.2-1.9-6.2-5.5
	C211,52.3,215.7,51.2,218.1,54.2"/>
<path id="XMLID_157_" class="st1" d="M205.4,52.8c-0.3,0.1-0.6,0.3-0.9,0.4c-1.3,0.5-3.3,0.6-4-0.7c-0.5-0.9-1.9-0.7-2.1,0.3
	c-0.3,1,0.8,1.8,1.7,1.3c1.3-0.8,3,0.3,3.9,1.4c0.2,0.3,0.4,0.6,0.6,0.8c1.2,1.5,3.4,0.9,3.9-0.8C208.8,53.7,207.1,52.1,205.4,52.8"
	/>
<path id="XMLID_156_" class="st1" d="M212.5,67.8c0.1,0.7,0.1,1.3,0.2,2.1c0.5,2.9,2.3,6.5,5.6,6.5c2.2,0,3.2,2.7,1.7,4.1
	c-1.5,1.5-4.1,0.5-4.1-1.7c0-3.2-3.6-5.1-6.5-5.6c-0.7-0.1-1.4-0.1-2.1-0.2c-3.8-0.6-5.2-5.2-2.6-7.9
	C207.3,62.5,211.9,63.9,212.5,67.8"/>
<path id="XMLID_153_" class="st2" d="M202.2,60.2c-0.3,0-0.6,0-1-0.1c-1.4-0.2-3.1-1.1-3.1-2.7c0-1.1-1.3-1.5-2-0.8
	c-0.7,0.7-0.2,2,0.8,2c1.6,0,2.4,1.7,2.7,3.1c0.1,0.3,0,0.7,0.1,1c0.3,1.8,2.5,2.5,3.8,1.2C204.7,62.7,204,60.5,202.2,60.2"/>
<path id="XMLID_150_" class="st2" d="M200.9,76.7c-0.3,0.6-0.6,1.2-0.9,1.9c-1.1,2.8-1.3,6.8,1.6,8.4c1.9,1.1,1.4,3.9-0.6,4.4
	c-2,0.5-3.8-1.6-2.7-3.6c1.6-2.8-0.6-6.2-2.9-8.1c-0.6-0.5-1.2-0.7-1.7-1.2c-3-2.4-1.9-7.2,1.7-8.1
	C198.9,69.6,202.3,73.1,200.9,76.7"/>
<path id="XMLID_147_" class="st2" d="M195.7,65c-0.3-0.2-0.5-0.3-0.8-0.6c-1.1-0.9-2.1-2.5-1.4-3.9c0.5-0.9-0.3-2-1.3-1.7
	c-1,0.3-1.2,1.6-0.3,2.1c1.3,0.8,1.3,2.7,0.7,4c-0.1,0.3-0.3,0.6-0.4,0.9c-0.7,1.7,0.9,3.4,2.6,3C196.6,68.4,197.2,66.2,195.7,65"/>
<path id="XMLID_146_" class="st1" d="M186.3,78.6c-0.5,0.4-1.1,0.7-1.7,1.2c-2.3,1.9-4.5,5.3-2.9,8.1c1.1,1.9-0.7,4.1-2.7,3.6
	c-2-0.5-2.5-3.3-0.6-4.4c2.8-1.6,2.6-5.7,1.6-8.4c-0.3-0.7-0.6-1.2-0.9-1.9c-1.4-3.6,1.9-7.2,5.5-6.2
	C188.2,71.5,189.3,76.2,186.3,78.6"/>
<path id="XMLID_145_" class="st1" d="M187.7,65.9c-0.1-0.3-0.3-0.6-0.4-0.9c-0.5-1.3-0.6-3.3,0.7-4c0.9-0.5,0.7-1.9-0.3-2.1
	c-1-0.3-1.8,0.8-1.3,1.7c0.8,1.3-0.3,3-1.4,3.9c-0.3,0.2-0.6,0.4-0.8,0.6c-1.5,1.2-0.9,3.4,0.8,3.9
	C186.8,69.4,188.4,67.7,187.7,65.9"/>
<path id="XMLID_142_" class="st2" d="M172.7,73c-0.7,0.1-1.3,0.1-2.1,0.2c-2.9,0.5-6.5,2.3-6.5,5.6c0,2.2-2.7,3.2-4.1,1.7
	c-1.5-1.5-0.5-4.1,1.7-4.1c3.2,0,5.1-3.6,5.6-6.5c0.1-0.7,0.1-1.4,0.2-2.1c0.6-3.8,5.2-5.2,7.9-2.6C177.9,67.8,176.5,72.5,172.7,73"
	/>
<path id="XMLID_141_" class="st1" d="M180.3,62.7c0-0.3,0-0.6,0.1-1c0.2-1.4,1.1-3.1,2.7-3.1c1.1,0,1.5-1.3,0.8-2
	c-0.7-0.7-2-0.2-2,0.8c0,1.6-1.7,2.4-3.1,2.7c-0.3,0.1-0.7,0-1,0.1c-1.8,0.3-2.5,2.5-1.2,3.8C177.8,65.2,180,64.6,180.3,62.7"/>
<path id="XMLID_140_" class="st1" d="M163.8,61.4c-0.6-0.3-1.2-0.6-1.9-0.9c-2.8-1.1-6.8-1.3-8.4,1.6c-1.1,1.9-3.9,1.4-4.4-0.6
	c-0.5-2,1.6-3.8,3.6-2.7c2.8,1.6,6.2-0.6,8.1-2.9c0.5-0.6,0.7-1.2,1.2-1.7c2.4-3,7.2-1.9,8.1,1.7C170.9,59.5,167.4,62.8,163.8,61.4"
	/>
<path id="XMLID_137_" class="st2" d="M175.5,56.2c0.2-0.3,0.3-0.5,0.6-0.8c0.9-1.1,2.5-2.2,3.9-1.4c0.9,0.5,2-0.3,1.7-1.3
	c-0.3-1-1.6-1.2-2.1-0.3c-0.8,1.3-2.7,1.3-4,0.7c-0.3-0.1-0.6-0.3-0.9-0.4c-1.7-0.7-3.4,0.9-3,2.6C172,57.2,174.3,57.7,175.5,56.2"
	/>
<path id="XMLID_133_" class="st2" d="M161.8,46.8c-0.4-0.5-0.7-1.1-1.2-1.7c-1.9-2.3-5.3-4.5-8.1-2.9c-1.9,1.1-4.1-0.7-3.6-2.7
	c0.5-2,3.3-2.5,4.4-0.6c1.6,2.8,5.7,2.6,8.4,1.6c0.7-0.3,1.2-0.6,1.9-0.9c3.6-1.4,7.2,1.9,6.2,5.5C169,48.7,164.2,49.9,161.8,46.8"
	/>
<path id="XMLID_130_" class="st2" d="M174.5,48.2c0.3-0.1,0.6-0.3,0.9-0.4c1.3-0.5,3.3-0.6,4,0.7c0.5,0.9,1.9,0.7,2.1-0.3
	c0.3-1-0.8-1.8-1.7-1.3c-1.3,0.8-3-0.3-3.9-1.4c-0.2-0.3-0.4-0.6-0.6-0.8c-1.2-1.5-3.4-0.9-3.9,0.8
	C171.1,47.3,172.8,48.9,174.5,48.2"/>
<path id="XMLID_125_" class="st1" d="M167.4,33.2c-0.1-0.7-0.1-1.3-0.2-2.1c-0.5-2.9-2.3-6.5-5.6-6.5c-2.2,0-3.2-2.7-1.7-4.1
	c1.5-1.5,4.1-0.5,4.1,1.7c0,3.2,3.6,5.1,6.5,5.6c0.7,0.1,1.4,0.1,2.1,0.2c3.8,0.6,5.2,5.2,2.6,7.9C172.7,38.5,168,37.1,167.4,33.2"
	/>
<path id="XMLID_120_" class="st1" d="M177.8,40.8c0.3,0.1,0.6,0,1,0.1c1.4,0.2,3.1,1.1,3.1,2.7c0,1.1,1.3,1.5,2,0.8
	c0.7-0.7,0.2-2-0.8-2c-1.6,0-2.4-1.7-2.7-3.1c-0.1-0.3,0-0.7-0.1-1c-0.3-1.8-2.5-2.5-3.8-1.2C175.2,38.3,175.9,40.5,177.8,40.8"/>
<path id="XMLID_116_" class="st1" d="M188.2,13.9c0.2,0.3,0.4,0.5,0.6,0.8c0.8,1.1,1.4,3,0.3,4.1c-0.7,0.7-0.2,2,0.8,2
	c1,0,1.6-1.2,0.8-2c-1.1-1.1-0.5-2.9,0.3-4.1c0.2-0.3,0.4-0.5,0.6-0.8c1.1-1.5,0-3.5-1.8-3.5C188.2,10.3,187.1,12.4,188.2,13.9"/>
<path id="XMLID_115_" class="st1" d="M206.7,17.9c0,0.3,0.1,0.6,0.2,1c0.1,1.4-0.3,3.3-1.8,3.7c-1,0.3-1.1,1.6-0.3,2.1
	c0.9,0.5,2-0.3,1.7-1.3c-0.4-1.5,1-2.8,2.3-3.4c0.3-0.1,0.6-0.2,0.9-0.3c1.7-0.7,1.8-3.1,0.2-4C208.5,14.8,206.5,16,206.7,17.9"/>
<path id="XMLID_113_" class="st1" d="M220.8,30.6c-0.1,0.3-0.2,0.6-0.3,0.9c-0.6,1.3-1.9,2.7-3.4,2.3c-1-0.3-1.8,0.8-1.3,1.7
	c0.5,0.9,1.9,0.7,2.1-0.3c0.4-1.5,2.3-1.9,3.7-1.8c0.3,0,0.6,0.1,1,0.2c1.8,0.2,3.1-1.8,2.2-3.3C223.9,28.9,221.5,28.9,220.8,30.6"
	/>
<path id="XMLID_112_" class="st1" d="M226.6,48.7c-0.3,0.2-0.5,0.4-0.8,0.6c-1.1,0.8-3,1.4-4.1,0.3c-0.7-0.7-2-0.2-2,0.8
	c0,1,1.2,1.6,2,0.8c1.1-1.1,2.9-0.5,4.1,0.3c0.3,0.2,0.5,0.4,0.8,0.6c1.5,1.1,3.5,0,3.5-1.8C230.2,48.7,228.1,47.6,226.6,48.7"/>
<path id="XMLID_110_" class="st1" d="M222.6,67.3c-0.3,0-0.6,0.1-1,0.2c-1.4,0.1-3.3-0.3-3.7-1.8c-0.3-1-1.6-1.1-2.1-0.3
	c-0.5,0.9,0.3,2,1.3,1.7c1.5-0.4,2.8,1,3.4,2.3c0.1,0.3,0.2,0.6,0.3,0.9c0.7,1.7,3.1,1.8,4,0.2C225.7,69.1,224.4,67.1,222.6,67.3"/>
<path id="XMLID_108_" class="st1" d="M209.8,81.3c-0.3-0.1-0.6-0.2-0.9-0.3c-1.3-0.6-2.7-1.9-2.3-3.4c0.3-1-0.8-1.8-1.7-1.3
	c-0.9,0.5-0.7,1.9,0.3,2.1c1.5,0.4,1.9,2.3,1.8,3.7c0,0.3-0.1,0.6-0.2,1c-0.2,1.8,1.8,3.1,3.3,2.2C211.6,84.4,211.5,82.1,209.8,81.3
	"/>
<path id="XMLID_106_" class="st1" d="M191.8,87.1c-0.2-0.3-0.4-0.5-0.6-0.7c-0.8-1.1-1.4-3-0.3-4.1c0.7-0.7,0.2-2-0.8-2
	c-1,0-1.6,1.2-0.8,2c1.1,1.1,0.5,2.9-0.3,4.1c-0.2,0.3-0.4,0.5-0.6,0.7c-1.1,1.5,0,3.5,1.8,3.5C191.8,90.7,192.9,88.6,191.8,87.1"/>
<path id="XMLID_103_" class="st1" d="M173.2,83.1c0-0.3-0.1-0.6-0.2-1c-0.1-1.4,0.3-3.3,1.8-3.7c1-0.3,1.1-1.6,0.3-2.1
	c-0.9-0.5-2,0.3-1.7,1.3c0.4,1.5-1,2.8-2.3,3.4c-0.3,0.1-0.6,0.2-0.9,0.3c-1.7,0.7-1.8,3.1-0.2,4C171.4,86.2,173.4,85,173.2,83.1"/>
<path id="XMLID_76_" class="st1" d="M159.1,70.4c0.1-0.3,0.2-0.6,0.3-0.9c0.6-1.3,1.9-2.7,3.4-2.3c1,0.3,1.8-0.8,1.3-1.7
	c-0.5-0.9-1.9-0.7-2.1,0.3c-0.4,1.5-2.3,1.9-3.7,1.8c-0.3,0-0.6-0.1-1-0.2c-1.8-0.2-3.1,1.8-2.2,3.3
	C156.1,72.1,158.4,72.1,159.1,70.4"/>
<path id="XMLID_75_" class="st1" d="M153.3,52.3c0.3-0.2,0.5-0.4,0.8-0.6c1.1-0.8,3-1.4,4.1-0.3c0.7,0.7,2,0.2,2-0.8
	c0-1-1.2-1.6-2-0.8c-1.1,1.1-2.9,0.5-4.1-0.3c-0.3-0.2-0.5-0.4-0.8-0.6c-1.5-1.1-3.5,0-3.5,1.8C149.8,52.3,151.8,53.4,153.3,52.3"/>
<path id="XMLID_74_" class="st1" d="M157.4,33.7c0.3,0,0.6-0.1,1-0.2c1.4-0.1,3.3,0.3,3.7,1.8c0.3,1,1.6,1.1,2.1,0.3
	c0.5-0.9-0.3-2-1.3-1.7c-1.5,0.4-2.8-1-3.4-2.3c-0.1-0.3-0.2-0.6-0.3-0.9c-0.7-1.7-3.1-1.8-4-0.2C154.3,32,155.5,33.9,157.4,33.7"/>
<path id="XMLID_73_" class="st1" d="M170.1,19.7c0.3,0.1,0.6,0.2,0.9,0.3c1.3,0.6,2.7,1.9,2.3,3.4c-0.3,1,0.8,1.8,1.7,1.3
	c0.9-0.5,0.7-1.9-0.3-2.1c-1.5-0.4-1.9-2.3-1.8-3.7c0-0.3,0.1-0.6,0.2-1c0.2-1.8-1.8-3.1-3.3-2.2C168.3,16.6,168.4,18.9,170.1,19.7"
	/>
<g id="XMLID_3_">
	<path id="XMLID_4_" class="st3" d="M18.5,59.5c2.7,2.1,6,3.4,9.3,3.4c4.2,0,6.5-1.6,6.5-4.2c0-2.5-1.7-3.4-7.4-4.9
		c-7.6-1.9-11.6-4.6-11.6-11c0-7.2,5.6-11.4,13.4-11.4c4.7,0,8.9,1.5,12.6,4.4c0.4,0.3,0.6,0.6,0.6,1c0,0.3-0.1,0.6-0.4,1l-2.2,3.5
		c-0.3,0.5-0.6,0.7-0.9,0.7c-0.3,0-0.6-0.2-1-0.4c-2.9-2.1-5.6-3.2-8.7-3.2c-3.4,0-5.6,1.6-5.6,4.1c0,2.7,1.9,3.6,7.1,4.9
		c8.1,2,11.9,5,11.9,11c0,7.1-5.8,11.6-14.3,11.6c-5.1,0-9.6-1.7-13-4.6c-0.5-0.4-0.7-0.7-0.7-1.1c0-0.2,0.2-0.5,0.4-1l2.2-3.4
		c0.3-0.4,0.6-0.7,0.9-0.7C17.8,59,18.1,59.2,18.5,59.5z"/>
	<path id="XMLID_6_" class="st3" d="M53.2,67.9c0,0.9-0.4,1.3-1.3,1.3h-4.8c-0.9,0-1.3-0.4-1.3-1.3V33.3c0-0.9,0.4-1.3,1.3-1.3h11.8
		c10.2,0,15.3,4,15.3,11.8c0,5.2-2.5,8.7-6.8,10.5L76,67.5c0.3,0.4,0.4,0.7,0.4,1c0,0.5-0.4,0.7-1.2,0.7h-5.3
		c-1.3,0-1.9-0.4-2.7-1.5L60.4,57c-0.4-0.6-0.7-0.7-1.4-0.7h-5.1c-0.6,0-0.7,0.2-0.7,0.7V67.9z M53.2,48.9c0,0.6,0.1,0.7,0.7,0.7
		h4.8c5.2,0,7.7-1.7,7.7-5.4c0-3.8-2.6-5.3-7.9-5.3h-4.7c-0.5,0-0.7,0.2-0.7,0.7V48.9z"/>
	<path id="XMLID_9_" class="st3" d="M91.7,32.1c12.6,0,20.1,7.2,20.1,18.1c0,11.6-7.8,19-21,19H79.6c-0.9,0-1.3-0.4-1.3-1.3V33.3
		c0-0.9,0.4-1.3,1.3-1.3H91.7z M85.7,61.6c0,0.5,0.2,0.7,0.7,0.7h4.5c8.5,0,13.3-4.5,13.3-11.8c0-7-4.8-11.5-13.1-11.5h-4.7
		c-0.5,0-0.7,0.2-0.7,0.7V61.6z"/>
	<path id="XMLID_12_" class="st3" d="M117,69.2c-0.9,0-1.3-0.4-1.3-1.3V33.3c0-0.9,0.4-1.3,1.3-1.3h4.8c0.9,0,1.3,0.4,1.3,1.3v34.6
		c0,0.9-0.4,1.3-1.3,1.3H117z M145,32.1c0.7,0,1.1,0.2,1.1,0.6c0,0.3-0.1,0.5-0.4,0.8l-13.2,16.7l13.7,17.5c0.3,0.4,0.4,0.6,0.4,0.8
		c0,0.4-0.4,0.6-1.1,0.6h-5.8c-1.3,0-1.7-0.3-2.5-1.3l-12.4-16.3c-0.3-0.4-0.5-0.8-0.5-1.1c0-0.3,0.2-0.7,0.5-1.2l12.2-15.8
		c0.8-1.1,1.2-1.4,2.5-1.4H145z"/>
</g>
<g id="XMLID_1_">
	<path id="XMLID_15_" class="st3" d="M250.9,32.1c9,0,14,3.1,14,10.1c0,3.9-1.9,6.5-5,7.8c3.8,1,6.2,4,6.2,8.1c0,7.4-5,11.1-15,11.1
		h-12.5c-0.9,0-1.3-0.4-1.3-1.3V33.3c0-0.9,0.4-1.3,1.3-1.3H250.9z M244.8,46.5c0,0.5,0.2,0.7,0.7,0.7h5.4c4.5,0,6.5-1.4,6.5-4.3
		c0-3-2.2-4.2-6.8-4.2h-5c-0.5,0-0.7,0.1-0.7,0.7V46.5z M251.3,53.7h-5.8c-0.6,0-0.7,0.2-0.7,0.7v7.4c0,0.5,0.2,0.7,0.7,0.7h5.6
		c5.1,0,7.3-1.3,7.3-4.5C258.4,55,256,53.7,251.3,53.7z"/>
	<path id="XMLID_19_" class="st3" d="M270.8,69.2c-0.9,0-1.3-0.4-1.3-1.3V33.3c0-0.9,0.4-1.3,1.3-1.3h4.8c0.9,0,1.3,0.4,1.3,1.3
		v34.6c0,0.9-0.4,1.3-1.3,1.3H270.8z"/>
	<path id="XMLID_21_" class="st3" d="M319.8,50.6c0.2,11-8.5,19.4-19.7,19.2c-11,0.2-19.6-8.2-19.4-19c-0.2-11,8.5-19.6,19.6-19.3
		C311.4,31.3,319.9,39.7,319.8,50.6z M312.1,50.7c0-7.3-5.2-12.3-11.9-12.3c-6.7,0-11.8,5.1-11.8,12.3c0,7.2,5.1,12.2,11.8,12.2
		C306.8,62.9,312.1,57.8,312.1,50.7z"/>
	<path id="XMLID_24_" class="st3" d="M351.8,59c0.3,0,0.6,0.2,0.8,0.6l2.3,3.3c0.2,0.3,0.3,0.6,0.3,0.8c0,0.4-0.2,0.7-0.7,1.1
		c-3.8,3.2-8.7,5-13.8,5c-10.8,0.2-19.6-8.3-19.3-19c-0.2-10.9,8.6-19.5,19.7-19.3c5.1,0,9.8,1.9,13.6,4.9c0.4,0.4,0.6,0.7,0.6,1
		c0,0.3-0.1,0.5-0.4,0.9l-2.3,3.3c-0.3,0.4-0.6,0.6-1,0.6c-0.3,0-0.6-0.2-1-0.4c-2.8-2.1-6.1-3.4-9.6-3.4c-6.7,0-11.9,5.1-11.9,12.3
		c0,7,5.1,12.2,11.9,12.2c3.7,0,6.9-1.2,9.8-3.4C351.2,59.2,351.6,59,351.8,59z"/>
	<path id="XMLID_26_" class="st3" d="M383.2,69.2c-0.9,0-1.3-0.4-1.3-1.3V54.3c0-0.5-0.2-0.7-0.7-0.7h-14.7c-0.5,0-0.7,0.1-0.7,0.7
		v13.6c0,0.9-0.4,1.3-1.3,1.3h-4.8c-0.9,0-1.3-0.4-1.3-1.3V33.3c0-0.9,0.4-1.3,1.3-1.3h4.8c0.9,0,1.3,0.4,1.3,1.3v12.7
		c0,0.5,0.2,0.7,0.7,0.7h14.7c0.5,0,0.7-0.2,0.7-0.7V33.3c0-0.9,0.4-1.3,1.3-1.3h4.8c0.9,0,1.3,0.4,1.3,1.3v34.6
		c0,0.9-0.4,1.3-1.3,1.3H383.2z"/>
	<path id="XMLID_29_" class="st3" d="M419.2,67.9c0,0.9-0.4,1.3-1.3,1.3h-21.3c-0.9,0-1.3-0.4-1.3-1.3V33.3c0-0.9,0.4-1.3,1.3-1.3
		h21.3c0.9,0,1.3,0.4,1.3,1.3v4.3c0,0.9-0.4,1.3-1.3,1.3h-14.4c-0.5,0-0.7,0.2-0.7,0.7v6.7c0,0.5,0.2,0.7,0.7,0.7H416
		c0.9,0,1.3,0.4,1.3,1.3v4.3c0,0.9-0.4,1.3-1.3,1.3h-12.6c-0.5,0-0.7,0.1-0.7,0.7v6.9c0,0.5,0.2,0.7,0.7,0.7h14.5
		c0.9,0,1.3,0.4,1.3,1.3V67.9z"/>
	<path id="XMLID_31_" class="st3" d="M429.5,69.2h-4.8c-0.9,0-1.3-0.4-1.3-1.3V33.5c0-1.3,0.4-1.9,1.2-1.9c0.6,0,1.2,0.4,2.2,1.6
		l15,17.1l14.9-17.1c1.1-1.2,1.5-1.6,2.2-1.6c0.8,0,1.2,0.6,1.2,1.9v34.4c0,0.9-0.4,1.3-1.3,1.3H454c-0.9,0-1.3-0.4-1.3-1.3v-20
		l-9,10.7c-1,1.1-1.4,1.4-2,1.4c-0.5,0-1-0.3-1.9-1.4l-9-10.7v20C430.9,68.8,430.4,69.2,429.5,69.2z"/>
	<path id="XMLID_33_" class="st3" d="M467.3,69.2c-0.9,0-1.3-0.4-1.3-1.3V33.3c0-0.9,0.4-1.3,1.3-1.3h4.8c0.9,0,1.3,0.4,1.3,1.3
		v34.6c0,0.9-0.4,1.3-1.3,1.3H467.3z"/>
	<path id="XMLID_35_" class="st3" d="M507.6,59c0.3,0,0.6,0.2,0.8,0.6l2.3,3.3c0.2,0.3,0.3,0.6,0.3,0.8c0,0.4-0.2,0.7-0.7,1.1
		c-3.8,3.2-8.7,5-13.8,5c-10.8,0.2-19.6-8.3-19.3-19c-0.2-10.9,8.6-19.5,19.7-19.3c5.1,0,9.8,1.9,13.6,4.9c0.4,0.4,0.6,0.7,0.6,1
		c0,0.3-0.1,0.5-0.4,0.9l-2.3,3.3c-0.3,0.4-0.6,0.6-1,0.6c-0.3,0-0.6-0.2-1-0.4c-2.8-2.1-6.1-3.4-9.6-3.4c-6.7,0-11.9,5.1-11.9,12.3
		c0,7,5.1,12.2,11.9,12.2c3.7,0,6.9-1.2,9.8-3.4C507,59.2,507.3,59,507.6,59z"/>
	<path id="XMLID_37_" class="st3" d="M545.5,48.2v19.7c0,0.9-0.4,1.3-1.3,1.3h-4.8c-0.9,0-1.3-0.4-1.3-1.3v-9.6
		c0-0.6-0.2-0.7-0.7-0.7h-15.9c-0.6,0-0.7,0.2-0.7,0.7v9.6c0,0.9-0.4,1.3-1.3,1.3h-4.8c-0.9,0-1.3-0.4-1.3-1.3V48.2
		c0-11,6.6-16.7,16.2-16.7C538.9,31.4,545.5,37,545.5,48.2z M537.4,50.7c0.5,0,0.7-0.3,0.7-0.7v-1.5c0-6.4-3.1-10.1-8.7-10.1
		c-5.5,0-8.6,3.7-8.6,10v1.6c0,0.6,0.2,0.7,0.7,0.7H537.4z"/>
	<path id="XMLID_40_" class="st3" d="M573.9,62.3c0.9,0,1.3,0.4,1.3,1.3v4.3c0,0.9-0.4,1.3-1.3,1.3h-21.4c-0.9,0-1.3-0.4-1.3-1.3
		V33.3c0-0.9,0.4-1.3,1.3-1.3h4.8c0.9,0,1.3,0.4,1.3,1.3v28.2c0,0.5,0.2,0.7,0.7,0.7H573.9z"/>
	<path id="XMLID_42_" class="st3" d="M581.6,59.5c2.7,2.1,6,3.4,9.3,3.4c4.2,0,6.5-1.6,6.5-4.2c0-2.5-1.7-3.4-7.4-4.9
		c-7.6-1.9-11.6-4.6-11.6-11c0-7.2,5.6-11.4,13.4-11.4c4.7,0,8.9,1.5,12.6,4.4c0.4,0.3,0.6,0.6,0.6,1c0,0.3-0.1,0.6-0.4,1l-2.2,3.5
		c-0.3,0.5-0.6,0.7-0.9,0.7c-0.3,0-0.6-0.2-1-0.4c-2.9-2.1-5.6-3.2-8.7-3.2c-3.4,0-5.6,1.6-5.6,4.1c0,2.7,1.9,3.6,7.1,4.9
		c8.1,2,11.9,5,11.9,11c0,7.1-5.8,11.6-14.3,11.6c-5.1,0-9.6-1.7-13-4.6c-0.5-0.4-0.7-0.7-0.7-1.1c0-0.2,0.2-0.5,0.4-1l2.2-3.4
		c0.3-0.4,0.6-0.7,0.9-0.7C580.9,59,581.2,59.2,581.6,59.5z"/>
</g>
</svg>
